<svg width="63" height="109" viewBox="0 0 63 109" fill="none" xmlns="http://www.w3.org/2000/svg">
<path d="M62.717 84.7201C61.9514 78.6513 56.5382 71.0667 51.7477 67.2409L51.2989 66.8812L51.3473 66.2245L51.6124 65.5865C55.601 55.187 57.6778 42.3157 57.7823 27.327C57.8406 19.1869 57.6657 10.6882 54.8728 4.09364C54.0511 2.14882 52.3857 0.0489006 51.1328 0.0489006C48.4531 0.264503 45.6778 5.35975 43.4261 14.0344C41.4384 21.707 40.5682 29.9989 39.9225 37.8167C39.2284 46.2384 39.1811 53.5655 39.7784 60.2173L39.8708 61.2568L38.85 61.0423C36.4188 60.5256 33.9349 60.2982 31.4503 60.3647C28.951 60.298 26.4525 60.5258 24.0065 61.0434L22.9857 61.2568L23.0781 60.2173C23.6754 53.5655 23.6281 46.2395 22.9329 37.8167C22.2872 29.9989 21.4171 21.7059 19.4293 14.0344C17.182 5.35975 14.4078 0.264503 11.8162 0.0544007H11.814C10.4675 0.0544007 8.80652 2.14992 7.98372 4.09474C5.19189 10.6849 5.01589 19.1858 5.07309 27.3281C5.18089 42.3223 7.25661 55.1947 11.243 65.5887L11.7315 66.78L11.1671 67.2365C6.3997 71.0678 1.04375 78.6513 0.325439 84.7168C-1.09468 96.6684 11.0098 106.609 23.2057 108.39C25.7698 108.763 28.4164 108.951 31.0707 108.951L31.6032 108.95L32.151 108.951C34.8075 108.951 37.4519 108.763 40.0116 108.39C52.1954 106.608 64.2251 96.6706 62.717 84.7201ZM14.2846 94.8281C12.1143 94.8281 10.4125 91.9427 10.4125 88.2566C10.4125 84.5705 12.1143 81.6851 14.2846 81.6851C16.456 81.6851 18.1566 84.5705 18.1566 88.2566C18.1566 91.9427 16.4549 94.8281 14.2846 94.8281ZM35.8349 104.051C35.8154 104.051 35.796 104.049 35.7766 104.047C34.3367 103.908 32.404 102.99 31.4305 101.507C30.4525 102.99 28.5198 103.908 27.0799 104.047C26.9208 104.063 26.762 104.014 26.6385 103.913C26.5151 103.811 26.437 103.665 26.4216 103.505C26.4061 103.346 26.4545 103.188 26.5561 103.064C26.6577 102.941 26.8042 102.863 26.9633 102.847C28.2437 102.722 30.6318 101.584 30.8298 99.7616C30.8331 99.7385 30.8441 99.7209 30.8496 99.6978C30.8682 99.6133 30.9033 99.5332 30.953 99.4624L30.9728 99.4393C30.9948 99.4151 31.0245 99.3975 31.0487 99.3744C31.0718 99.3535 31.0927 99.3326 31.1191 99.315C31.0883 99.3337 31.0531 99.3458 31.0278 99.3678C29.7672 99.1027 28.6639 97.6441 28.4153 96.4462C28.2547 95.6806 29.2128 95.8027 29.6803 95.8874C30.2585 95.9873 30.8438 96.0399 31.4305 96.0447C32.0168 96.0398 32.6017 95.9872 33.1795 95.8874C33.647 95.8027 34.604 95.6806 34.4434 96.4462C34.1926 97.6452 33.0849 99.1115 31.8243 99.3711C31.8122 99.3634 31.799 99.3623 31.788 99.3535C31.7979 99.3601 31.8045 99.3678 31.8111 99.3744C31.8177 99.381 31.8287 99.3876 31.8342 99.3953C31.9315 99.4854 31.9952 99.6061 32.0146 99.7374C32.0157 99.7484 32.0278 99.7528 32.0289 99.7627C32.2247 101.583 34.6106 102.721 35.891 102.847C35.9699 102.855 36.0466 102.878 36.1166 102.915C36.1866 102.952 36.2485 103.003 36.2988 103.064C36.3491 103.125 36.3868 103.196 36.4097 103.272C36.4326 103.348 36.4402 103.427 36.4322 103.506C36.419 103.655 36.3502 103.794 36.2396 103.895C36.129 103.996 35.9846 104.051 35.8349 104.051ZM48.5763 94.8281C46.4049 94.8281 44.7054 91.9427 44.7054 88.2566C44.7054 84.5705 46.4049 81.6851 48.5763 81.6851C50.7478 81.6851 52.4484 84.5705 52.4484 88.2566C52.4484 91.9427 50.7478 94.8281 48.5763 94.8281ZM49.8215 84.2206C50.4892 85.0644 50.9358 86.5494 50.9358 88.2577C50.9358 89.966 50.4903 91.451 49.8215 92.2947C49.4409 92.8755 48.9998 93.2198 48.5763 93.2198C48.1517 93.2198 47.7117 92.8766 47.33 92.2947C46.6645 91.451 46.2179 89.966 46.2179 88.2577C46.2179 86.5494 46.6634 85.0644 47.33 84.2206C47.7117 83.6398 48.1517 83.2955 48.5763 83.2955C48.9998 83.2955 49.4409 83.6387 49.8215 84.2206ZM15.5309 84.2206C16.1964 85.0644 16.643 86.5494 16.643 88.2577C16.643 89.966 16.1975 91.451 15.5309 92.2947C15.1492 92.8755 14.7092 93.2198 14.2846 93.2198C13.8611 93.2198 13.42 92.8766 13.0394 92.2947C12.3717 91.451 11.9251 89.966 11.9251 88.2577C11.9251 86.5494 12.3706 85.0644 13.0394 84.2206C13.42 83.6398 13.8611 83.2955 14.2846 83.2955C14.7092 83.2955 15.1492 83.6387 15.5309 84.2206Z" fill="url(#paint0_linear_1_10)"/>
<defs>
<linearGradient id="paint0_linear_1_10" x1="0.5" y1="54" x2="115" y2="146" gradientUnits="userSpaceOnUse">
<stop stop-color="#E90DDA"/>
<stop offset="0.505" stop-color="#0EB1D2"/>
<stop offset="1" stop-color="#0EB1D2"/>
</linearGradient>
</defs>
</svg>
